<?xml version="1.0" encoding="UTF-8"?><svg xmlns="http://www.w3.org/2000/svg" viewBox="0 0 657.89 1181.97"><defs><style>.cls-1{fill:#dfdc81;}.cls-1,.cls-2{stroke:#000;stroke-miterlimit:10;stroke-width:10px;}.cls-2{fill:#f2f5d3;}</style></defs><g id="Layer_3"><polygon class="cls-1" points="328.95 1171.69 5.72 590.98 328.95 10.28 652.17 590.98 328.95 1171.69"/></g><g id="Layer_2"><path class="cls-2" d="m587.37,253.79v329.96c0,89.34-72.42,161.75-161.75,161.75h-193.34c-89.33,0-161.75-72.41-161.75-161.75V253.79c0-59.28,48.06-107.34,107.35-107.34h302.14c59.29,0,107.35,48.06,107.35,107.34Z"/><path class="cls-2" d="m233.1,746.3h191.7v32.31l-41.77,22.42h.38v289.67c0,15.18-12.3,27.48-27.48,27.48h-53.96c-15.18,0-27.48-12.3-27.48-27.48v-289.67h.81l-42.2-22.42v-32.31Z"/></g></svg>