<?xml version="1.0" encoding="UTF-8"?><svg id="Layer_1" xmlns="http://www.w3.org/2000/svg" viewBox="0 0 1076.23 1265.37"><defs><style>.cls-1{fill:#b0bad8;}.cls-1,.cls-2,.cls-3{stroke:#000;stroke-miterlimit:10;stroke-width:10px;}.cls-2{fill:#003462;}.cls-3{fill:#b9e5fb;}</style></defs><polygon class="cls-1" points="272.24 295.75 803.99 295.75 1069.86 632.68 803.99 969.62 272.24 969.62 6.37 632.68 272.24 295.75"/><polygon class="cls-2" points="538.11 1255.09 191.68 632.68 538.11 10.28 884.55 632.68 538.11 1255.09"/><path class="cls-3" d="m796.53,339.35v329.96c0,89.34-72.42,161.75-161.75,161.75h-193.34c-89.33,0-161.75-72.41-161.75-161.75v-329.96c0-59.28,48.06-107.34,107.35-107.34h302.14c59.29,0,107.35,48.06,107.35,107.34Z"/><path class="cls-3" d="m442.26,831.86h191.7v32.31l-41.77,22.42h.38v289.67c0,15.18-12.3,27.48-27.48,27.48h-53.96c-15.18,0-27.48-12.3-27.48-27.48v-289.67h.81l-42.2-22.42v-32.31Z"/></svg>