<?xml version="1.0" encoding="UTF-8"?><svg id="Layer_1" xmlns="http://www.w3.org/2000/svg" viewBox="0 0 906.42 1140.29"><defs><style>.cls-1{fill:#54834f;}.cls-1,.cls-2,.cls-3,.cls-4,.cls-5{stroke:#000;stroke-miterlimit:10;stroke-width:10px;}.cls-2{fill:#85a67d;}.cls-3{fill:#a1be99;}.cls-4{fill:#d4e1d3;}.cls-5{fill:#206f28;}</style></defs><polygon class="cls-2" points="823.83 411.18 452.86 197.01 81.9 411.18 81.9 839.54 452.86 1053.71 823.83 839.54 823.83 411.18"/><path class="cls-5" d="m27.74,684.65l221.66-316.57c60.02-85.71,178.14-106.53,263.85-46.52l185.49,129.88c85.7,60.01,106.54,178.13,46.52,263.85l-221.66,316.57c-39.82,56.87-118.22,70.7-175.1,30.87L58.63,859.75c-56.88-39.83-70.71-118.23-30.88-175.1Z"/><path class="cls-5" d="m698.5,450.13l-183.92-128.78,21.71-31,55.14,6.55-.36-.26L785.65,18.73c10.2-14.56,30.26-18.1,44.83-7.9l51.77,36.25c14.56,10.2,18.1,30.26,7.9,44.83l-194.6,277.91-.78-.54,25.43,49.86-21.71,31Z"/><path class="cls-1" d="m878.67,685.11l-221.66-316.57c-60.02-85.71-178.14-106.53-263.85-46.52l-185.49,129.88c-85.7,60.01-106.54,178.13-46.52,263.85l221.66,316.57c39.82,56.87,118.22,70.7,175.1,30.87l289.88-202.97c56.88-39.83,70.71-118.23,30.88-175.1Z"/><path class="cls-1" d="m207.92,450.59l183.92-128.78-21.71-31-55.14,6.55.36-.26L120.77,19.19c-10.2-14.56-30.26-18.1-44.83-7.9L24.17,47.54c-14.56,10.2-18.1,30.26-7.9,44.83l194.6,277.91.78-.54-25.43,49.86,21.71,31Z"/><polygon class="cls-3" points="453.17 1129.86 177.14 625 452.55 120.36 728.58 625.22 453.17 1129.86"/><path class="cls-4" d="m325.26,500v162.93c0,44.12,35.76,79.87,79.87,79.87h95.47c44.11,0,79.87-35.76,79.87-79.87v-162.93c0-29.27-23.73-53-53.01-53h-149.19c-29.28,0-53.01,23.73-53.01,53Z"/><path class="cls-4" d="m500.19,743.19h-94.66v15.95s20.63,11.07,20.63,11.07h-.19v143.04c0,7.5,6.07,13.57,13.57,13.57h26.65c7.5,0,13.57-6.07,13.57-13.57v-143.04h-.4s20.84-11.07,20.84-11.07v-15.95Z"/></svg>