<?xml version="1.0" encoding="UTF-8"?><svg id="Layer_1" xmlns="http://www.w3.org/2000/svg" viewBox="0 0 934.88 1342.59"><defs><style>.cls-1{fill:#c677a4;}.cls-1,.cls-2,.cls-3,.cls-4{stroke:#000;stroke-miterlimit:10;stroke-width:10px;}.cls-2{fill:#da99be;}.cls-3{fill:#c26b9b;}.cls-4{fill:#af297a;}</style></defs><polygon class="cls-3" points="929.88 448.49 467.44 181.5 5 448.49 5 982.47 467.44 1249.46 929.88 982.47 929.88 448.49"/><path class="cls-4" d="m316.37,377.68h302.14c59.25,0,107.35,48.1,107.35,107.35v329.96c0,89.27-72.48,161.75-161.75,161.75h-193.33c-89.27,0-161.75-72.48-161.75-161.75v-329.96c0-59.25,48.1-107.35,107.35-107.35Z" transform="translate(934.88 1354.41) rotate(180)"/><polygon class="cls-4" points="371.59 344.57 413.36 322.15 521.09 322.15 563.29 344.57 563.29 376.88 371.59 376.88 371.59 344.57"/><path class="cls-4" d="m412.98,5h108.92v289.67c0,15.17-12.31,27.48-27.48,27.48h-53.96c-15.17,0-27.48-12.31-27.48-27.48V5h0Z" transform="translate(934.88 327.15) rotate(-180)"/><polygon class="cls-1" points="831.44 899.61 467.44 1087.2 103.44 899.61 103.44 610.2 466.69 802.2 831.44 610.2 831.44 899.61"/><polygon class="cls-2" points="770.44 1092.2 470.44 1336.2 158.44 1092.2 164.44 848.2 476.69 1006.2 776.44 848.2 770.44 1092.2"/></svg>